<svg width="40" height="40" viewBox="0 0 40 40" fill="none" xmlns="http://www.w3.org/2000/svg">
<rect width="40" height="40" rx="20" fill="#1F1F1F"/>
<path d="M25 19H21V15C21 14.7348 20.8946 14.4804 20.7071 14.2929C20.5196 14.1054 20.2652 14 20 14C19.7348 14 19.4804 14.1054 19.2929 14.2929C19.1054 14.4804 19 14.7348 19 15V19H15C14.7348 19 14.4804 19.1054 14.2929 19.2929C14.1054 19.4804 14 19.7348 14 20C14 20.2652 14.1054 20.5196 14.2929 20.7071C14.4804 20.8946 14.7348 21 15 21H19V25C19 25.2652 19.1054 25.5196 19.2929 25.7071C19.4804 25.8946 19.7348 26 20 26C20.2652 26 20.5196 25.8946 20.7071 25.7071C20.8946 25.5196 21 25.2652 21 25V21H25C25.2652 21 25.5196 20.8946 25.7071 20.7071C25.8946 20.5196 26 20.2652 26 20C26 19.7348 25.8946 19.4804 25.7071 19.2929C25.5196 19.1054 25.2652 19 25 19Z" fill="#FBFBFB"/>
</svg>
