<svg width="20" height="20" viewBox="0 0 20 20" fill="none" xmlns="http://www.w3.org/2000/svg">
<g id="Frame">
<g id="Group">
<path id="Vector" d="M16.1111 3.38892C16.0508 3.38892 15.993 3.41286 15.9504 3.45549C15.9077 3.49812 15.8838 3.55594 15.8838 3.61622V6.17786C15.8838 6.20771 15.8897 6.23727 15.9011 6.26485C15.9125 6.29243 15.9293 6.31748 15.9504 6.33859C15.9715 6.3597 15.9965 6.37644 16.0241 6.38786C16.0517 6.39929 16.0812 6.40517 16.1111 6.40517C16.1409 6.40517 16.1705 6.39929 16.1981 6.38786C16.2257 6.37644 16.2507 6.3597 16.2718 6.33859C16.2929 6.31748 16.3097 6.29243 16.3211 6.26485C16.3325 6.23727 16.3384 6.20771 16.3384 6.17786V3.61622C16.3384 3.55594 16.3145 3.49812 16.2718 3.45549C16.2292 3.41286 16.1714 3.38892 16.1111 3.38892ZM16.3384 14.8528V9.44243C16.3384 9.38215 16.3145 9.32433 16.2718 9.2817C16.2292 9.23908 16.1714 9.21513 16.1111 9.21513C16.0508 9.21513 15.993 9.23908 15.9504 9.2817C15.9077 9.32433 15.8838 9.38215 15.8838 9.44243V14.8529C15.8838 15.1533 16.3384 15.1538 16.3384 14.8528Z" fill="#1F1F1F"/>
<path id="Vector_2" d="M3.46473 19.3193H9.60887C10.1793 19.3193 10.661 18.936 10.8125 18.4138H15.8321V19.092C15.8321 19.1218 15.838 19.1514 15.8494 19.1789C15.8608 19.2065 15.8776 19.2316 15.8987 19.2527C15.9198 19.2738 15.9448 19.2905 15.9724 19.302C16 19.3134 16.0296 19.3193 16.0594 19.3193C16.0893 19.3193 16.1188 19.3134 16.1464 19.302C16.174 19.2905 16.199 19.2738 16.2201 19.2527C16.2413 19.2316 16.258 19.2065 16.2694 19.1789C16.2808 19.1514 16.2867 19.1218 16.2867 19.092V18.4138H16.5489C17.2331 18.4138 17.7897 17.8571 17.7897 17.1729V1.92161C17.7897 1.23739 17.2331 0.680786 16.5489 0.680786H10.1459C9.46164 0.680786 8.90504 1.23739 8.90504 1.92161V9.79626H3.4641C2.77316 9.79626 2.21094 10.3585 2.21094 11.0494V18.0654C2.21094 18.7568 2.7734 19.3193 3.46473 19.3193ZM9.35965 1.92165C9.35965 1.48809 9.7123 1.13543 10.1459 1.13543H16.5489C16.9825 1.13543 17.3352 1.48809 17.3352 1.92165V7.6452H9.35965V1.92165ZM9.35965 8.09981H17.3352V17.1729C17.3352 17.6065 16.9825 17.9593 16.5489 17.9593H10.8627V11.0495C10.8627 10.3586 10.3005 9.79633 9.60957 9.79633H9.35965V8.09981ZM2.66555 11.0494C2.66555 10.6091 3.02379 10.2509 3.4641 10.2509H9.60961C10.0499 10.2509 10.4082 10.6091 10.4082 11.0494V11.922H2.66555V11.0494ZM2.66555 12.3769H10.4082V18.0654C10.4082 18.5062 10.0496 18.8647 9.60891 18.8647H3.46473C3.02406 18.8647 2.66555 18.5062 2.66555 18.0654V12.3769Z" fill="#1F1F1F"/>
<path id="Vector_3" d="M6.53656 18.0154C7.85738 18.0154 8.93199 16.9408 8.93199 15.6199C8.93199 14.2999 7.85738 13.226 6.53656 13.226C5.21656 13.226 4.14258 14.2999 4.14258 15.6199C4.14258 16.9408 5.21656 18.0154 6.53656 18.0154ZM6.53656 13.6806C7.60672 13.6806 8.47738 14.5506 8.47738 15.62C8.47738 16.6901 7.60672 17.5608 6.53656 17.5608C5.46719 17.5608 4.59715 16.6901 4.59715 15.62C4.59715 14.5506 5.46719 13.6806 6.53656 13.6806Z" fill="#1F1F1F"/>
<path id="Vector_4" d="M6.53691 14.7253C7.03086 14.7253 7.43262 15.1268 7.43262 15.6203C7.43262 15.6806 7.45657 15.7384 7.49919 15.781C7.54182 15.8236 7.59964 15.8476 7.65992 15.8476C7.72021 15.8476 7.77802 15.8236 7.82065 15.781C7.86328 15.7384 7.88723 15.6806 7.88723 15.6203C7.88723 14.8761 7.28152 14.2707 6.53691 14.2707C6.50682 14.2703 6.47694 14.2759 6.44902 14.2871C6.4211 14.2984 6.39569 14.3151 6.37426 14.3362C6.35284 14.3574 6.33583 14.3825 6.32422 14.4103C6.31261 14.4381 6.30663 14.4679 6.30663 14.498C6.30663 14.5281 6.31261 14.5579 6.32422 14.5857C6.33583 14.6134 6.35284 14.6386 6.37426 14.6598C6.39569 14.6809 6.4211 14.6976 6.44902 14.7088C6.47694 14.7201 6.50682 14.7257 6.53691 14.7253ZM3.68531 10.7404C3.65546 10.7404 3.6259 10.7462 3.59833 10.7577C3.57075 10.7691 3.54569 10.7858 3.52458 10.8069C3.50348 10.828 3.48673 10.8531 3.47531 10.8807C3.46389 10.9083 3.45801 10.9378 3.45801 10.9677V11.2055C3.45801 11.2354 3.46389 11.2649 3.47531 11.2925C3.48673 11.3201 3.50348 11.3451 3.52458 11.3662C3.54569 11.3873 3.57075 11.4041 3.59833 11.4155C3.6259 11.4269 3.65546 11.4328 3.68531 11.4328C3.71516 11.4328 3.74472 11.4269 3.7723 11.4155C3.79988 11.4041 3.82493 11.3873 3.84604 11.3662C3.86715 11.3451 3.88389 11.3201 3.89531 11.2925C3.90674 11.2649 3.91262 11.2354 3.91262 11.2055V10.9677C3.91261 10.9074 3.88866 10.8496 3.84603 10.8069C3.8034 10.7643 3.74559 10.7404 3.68531 10.7404ZM4.48805 10.7404C4.4582 10.7404 4.42864 10.7462 4.40106 10.7577C4.37348 10.7691 4.34843 10.7858 4.32732 10.8069C4.30621 10.828 4.28947 10.8531 4.27804 10.8807C4.26662 10.9083 4.26074 10.9378 4.26074 10.9677V11.2055C4.26074 11.2658 4.28469 11.3236 4.32732 11.3662C4.36995 11.4089 4.42776 11.4328 4.48805 11.4328C4.54833 11.4328 4.60615 11.4089 4.64878 11.3662C4.6914 11.3236 4.71535 11.2658 4.71535 11.2055V10.9677C4.71535 10.9378 4.70947 10.9083 4.69805 10.8807C4.68663 10.8531 4.66988 10.828 4.64878 10.8069C4.62767 10.7858 4.60261 10.7691 4.57503 10.7577C4.54745 10.7462 4.5179 10.7404 4.48805 10.7404ZM5.29086 10.7404C5.26101 10.7404 5.23145 10.7462 5.20387 10.7577C5.1763 10.7691 5.15124 10.7858 5.13013 10.8069C5.10902 10.828 5.09228 10.8531 5.08086 10.8807C5.06943 10.9083 5.06355 10.9378 5.06355 10.9677V11.2055C5.06355 11.2658 5.0875 11.3236 5.13013 11.3662C5.17276 11.4089 5.23057 11.4328 5.29086 11.4328C5.35114 11.4328 5.40896 11.4089 5.45159 11.3662C5.49422 11.3236 5.51816 11.2658 5.51816 11.2055V10.9677C5.51816 10.9378 5.51228 10.9083 5.50086 10.8807C5.48944 10.8531 5.4727 10.828 5.45159 10.8069C5.43048 10.7858 5.40542 10.7691 5.37785 10.7577C5.35027 10.7462 5.32071 10.7404 5.29086 10.7404Z" fill="#1F1F1F"/>
</g>
</g>
</svg>
