<svg width="40" height="40" viewBox="0 0 40 40" fill="none" xmlns="http://www.w3.org/2000/svg">
<rect width="40" height="40" rx="20" fill="#FBFBFB"/>
<g clip-path="url(#clip0_95_1093)">
<path d="M32 12H12.242L12.2 11.649C12.114 10.9194 11.7634 10.2467 11.2145 9.75848C10.6656 9.27022 9.95663 9.00034 9.222 9H8V11H9.222C9.46693 11 9.70334 11.09 9.88637 11.2527C10.0694 11.4155 10.1863 11.6397 10.215 11.883L11.8 25.351C11.886 26.0806 12.2366 26.7533 12.7855 27.2415C13.3344 27.7298 14.0434 27.9997 14.778 28H28V26H14.778C14.5329 25.9999 14.2964 25.9099 14.1133 25.7469C13.9303 25.5839 13.8134 25.3594 13.785 25.116L13.654 24H29.836L32 12ZM28.164 22H13.419L12.478 14H29.607L28.164 22Z" fill="#0077FF"/>
<path d="M15 33C16.1046 33 17 32.1046 17 31C17 29.8954 16.1046 29 15 29C13.8954 29 13 29.8954 13 31C13 32.1046 13.8954 33 15 33Z" fill="#0077FF"/>
<path d="M25 33C26.1046 33 27 32.1046 27 31C27 29.8954 26.1046 29 25 29C23.8954 29 23 29.8954 23 31C23 32.1046 23.8954 33 25 33Z" fill="#0077FF"/>
</g>
<defs>
<clipPath id="clip0_95_1093">
<rect width="24" height="24" fill="white" transform="translate(8 9)"/>
</clipPath>
</defs>
</svg>
