<svg width="40" height="40" viewBox="0 0 40 40" fill="none" xmlns="http://www.w3.org/2000/svg">
<rect width="40" height="40" rx="20" fill="#FBFBFB"/>
<g clip-path="url(#clip0_95_1150)">
<path d="M25.5 9.91699C24.3739 9.93451 23.2724 10.2488 22.3067 10.8283C21.341 11.4077 20.5453 12.2317 20 13.217C19.4546 12.2317 18.6589 11.4077 17.6932 10.8283C16.7275 10.2488 15.626 9.93451 14.5 9.91699C12.7049 9.99498 11.0137 10.7802 9.79574 12.1012C8.57782 13.4222 7.93221 15.1715 7.99996 16.967C7.99996 23.742 18.956 31.567 19.422 31.899L20 32.308L20.578 31.899C21.044 31.569 32 23.742 32 16.967C32.0677 15.1715 31.4221 13.4222 30.2042 12.1012C28.9863 10.7802 27.295 9.99498 25.5 9.91699ZM20 29.846C16.747 27.416 9.99996 21.446 9.99996 16.967C9.9316 15.7017 10.3663 14.4607 11.2093 13.5147C12.0523 12.5687 13.2352 11.9943 14.5 11.917C15.7647 11.9943 16.9476 12.5687 17.7906 13.5147C18.6336 14.4607 19.0683 15.7017 19 16.967H21C20.9316 15.7017 21.3663 14.4607 22.2093 13.5147C23.0523 12.5687 24.2352 11.9943 25.5 11.917C26.7647 11.9943 27.9476 12.5687 28.7906 13.5147C29.6336 14.4607 30.0683 15.7017 30 16.967C30 21.448 23.253 27.416 20 29.846Z" fill="#0077FF"/>
</g>
<defs>
<clipPath id="clip0_95_1150">
<rect width="24" height="24" fill="white" transform="translate(8 9)"/>
</clipPath>
</defs>
</svg>
