<svg width="40" height="40" viewBox="0 0 40 40" fill="none" xmlns="http://www.w3.org/2000/svg">
<g id="Frame" clip-path="url(#clip0_64_930)">
<g id="Group">
<path id="01 align center" d="M29.1669 1.52832C27.2902 1.55751 25.4544 2.08141 23.8449 3.04711C22.2354 4.0128 20.9092 5.3861 20.0003 7.02832C19.0913 5.3861 17.7651 4.0128 16.1557 3.04711C14.5462 2.08141 12.7103 1.55751 10.8336 1.52832C7.84182 1.6583 5.0231 2.96708 2.99323 5.16871C0.963355 7.37034 -0.112662 10.2859 0.000256006 13.2783C0.000256006 24.57 18.2603 37.6117 19.0369 38.165L20.0003 38.8467L20.9636 38.165C21.7403 37.615 40.0003 24.57 40.0003 13.2783C40.1132 10.2859 39.0372 7.37034 37.0073 5.16871C34.9774 2.96708 32.1587 1.6583 29.1669 1.52832Z" fill="#A0A0A0"/>
</g>
</g>
<defs>
<clipPath id="clip0_64_930">
<rect width="40" height="40" fill="white"/>
</clipPath>
</defs>
</svg>
