<svg width="147" height="51" viewBox="0 0 147 51" fill="none" xmlns="http://www.w3.org/2000/svg">
<path d="M21.2937 0.365609L13.5539 24.6785C13.4551 24.9222 13.2947 25.1416 13.0725 25.3366C12.8503 25.5072 12.591 25.5925 12.2948 25.5925H8.99889C8.67794 25.5925 8.40637 25.5072 8.18417 25.3366C7.96198 25.1416 7.81385 24.9222 7.73978 24.6785L0 0.365609H3.36995L9.40624 20.3643C9.52968 20.8274 9.65313 21.2905 9.77657 21.7536C9.9247 22.1924 10.0481 22.6433 10.1469 23.1064H11.1468C11.2702 22.6433 11.3937 22.1802 11.5171 21.7171C11.6405 21.254 11.7763 20.7909 11.9245 20.3278L17.9237 0.365609H21.2937ZM28.0845 7.78744V25.5925H24.9738V7.78744H28.0845ZM27.2698 0.219367C27.9117 0.219367 28.2326 0.536226 28.2326 1.16995V3.25391C28.2326 3.88763 27.9117 4.20449 27.2698 4.20449H25.7885C25.1466 4.20449 24.8256 3.88763 24.8256 3.25391V1.16995C24.8256 0.536226 25.1466 0.219367 25.7885 0.219367H27.2698ZM43.7139 7.34871C45.9359 7.34871 47.5776 8.06774 48.6392 9.50579C49.7008 10.9195 50.2316 13.2959 50.2316 16.6351C50.2316 18.1707 50.0959 19.5234 49.8243 20.6934C49.5774 21.8633 49.1454 22.8505 48.5282 23.6548C47.9356 24.4348 47.1209 25.0319 46.084 25.4463C45.0718 25.8363 43.788 26.0312 42.2326 26.0312C41.6154 26.0312 40.9488 26.0069 40.2329 25.9581C39.5169 25.9094 38.7886 25.8241 38.048 25.7022C37.3073 25.6047 36.579 25.4828 35.8631 25.3366C35.1718 25.166 34.5299 24.971 33.9374 24.7516L36.4556 22.6311C37.1222 22.8261 37.7764 22.9845 38.4183 23.1064C39.0849 23.2283 39.7268 23.3136 40.344 23.3623C40.9859 23.3867 41.5907 23.3989 42.1586 23.3989C43.3189 23.3745 44.2447 23.1551 44.936 22.7408C45.652 22.3264 46.1704 21.6318 46.4914 20.6568C46.8123 19.6575 46.9728 18.3169 46.9728 16.6351C46.9728 15.0021 46.8493 13.7103 46.6025 12.7597C46.3556 11.7847 45.9112 11.0901 45.2693 10.6757C44.6521 10.2614 43.7633 10.0542 42.603 10.0542C41.6154 10.0542 40.6773 10.3223 39.7885 10.8585C38.8997 11.3704 37.8751 12.0772 36.7148 12.9791L36.4926 10.8951C37.2333 10.1151 37.9862 9.46923 38.7516 8.95738C39.5416 8.42116 40.3563 8.01899 41.1957 7.75088C42.0351 7.48277 42.8745 7.34871 43.7139 7.34871ZM37.0851 0V6.65406C37.0851 7.40965 37.0604 8.1043 37.0111 8.73802C36.9864 9.37174 36.9 10.0176 36.7518 10.6757L37.0481 11.1876L37.0851 24.8979L33.9374 24.7516V0H37.0851ZM62.5379 7.34871C65.2536 7.34871 67.2164 7.83619 68.4261 8.81114C69.6605 9.78609 70.2777 11.2363 70.2777 13.1619C70.3024 14.7462 69.9691 15.9892 69.2778 16.8911C68.5866 17.7685 67.4879 18.2073 65.982 18.2073H55.4647V15.7942H65.1672C65.982 15.7942 66.5128 15.5261 66.7596 14.9899C67.0065 14.4293 67.13 13.82 67.13 13.1619C67.1053 12.0163 66.7596 11.1998 66.093 10.7123C65.4265 10.2248 64.2908 9.98108 62.6861 9.98108C61.3776 9.98108 60.3407 10.1761 59.5753 10.5661C58.8347 10.9317 58.3039 11.5898 57.9829 12.5403C57.6867 13.4665 57.5386 14.7705 57.5386 16.4523C57.5386 18.3535 57.7237 19.8037 58.094 20.8031C58.4891 21.8024 59.1063 22.4849 59.9457 22.8505C60.7851 23.2161 61.896 23.3989 63.2786 23.3989C64.2414 23.3989 65.2907 23.3623 66.4263 23.2892C67.5867 23.1917 68.6236 23.082 69.5371 22.9601L69.8704 25.0441C69.3025 25.2635 68.5989 25.4463 67.7595 25.5925C66.9448 25.7388 66.0931 25.8484 65.2043 25.9216C64.3402 25.9947 63.5625 26.0312 62.8712 26.0312C60.7974 26.0312 59.131 25.7266 57.8718 25.1172C56.6127 24.4835 55.6869 23.4842 55.0944 22.1193C54.5266 20.7299 54.2427 18.9019 54.2427 16.6351C54.2427 14.2953 54.5266 12.455 55.0944 11.1145C55.6869 9.74953 56.5881 8.78677 57.7978 8.22617C59.0322 7.6412 60.6123 7.34871 62.5379 7.34871ZM80.6688 0.365609V25.5925H77.41V0.365609H80.6688ZM88.9271 0.365609V3.21735H69.1888V0.365609H88.9271ZM95.954 7.34871C98.6697 7.34871 100.632 7.83619 101.842 8.81114C103.077 9.78609 103.694 11.2363 103.694 13.1619C103.719 14.7462 103.385 15.9892 102.694 16.8911C102.003 17.7685 100.904 18.2073 99.398 18.2073H88.8808V15.7942H98.5833C99.398 15.7942 99.9288 15.5261 100.176 14.9899C100.423 14.4293 100.546 13.82 100.546 13.1619C100.521 12.0163 100.176 11.1998 99.5091 10.7123C98.8425 10.2248 97.7068 9.98108 96.1021 9.98108C94.7936 9.98108 93.7567 10.1761 92.9914 10.5661C92.2507 10.9317 91.7199 11.5898 91.399 12.5403C91.1027 13.4665 90.9546 14.7705 90.9546 16.4523C90.9546 18.3535 91.1397 19.8037 91.5101 20.8031C91.9051 21.8024 92.5223 22.4849 93.3617 22.8505C94.2011 23.2161 95.3121 23.3989 96.6946 23.3989C97.6575 23.3989 98.7067 23.3623 99.8424 23.2892C101.003 23.1917 102.04 23.082 102.953 22.9601L103.287 25.0441C102.719 25.2635 102.015 25.4463 101.176 25.5925C100.361 25.7388 99.5091 25.8484 98.6203 25.9216C97.7562 25.9947 96.9785 26.0312 96.2873 26.0312C94.2134 26.0312 92.547 25.7266 91.2879 25.1172C90.0288 24.4835 89.103 23.4842 88.5104 22.1193C87.9426 20.7299 87.6587 18.9019 87.6587 16.6351C87.6587 14.2953 87.9426 12.455 88.5104 11.1145C89.103 9.74953 90.0041 8.78677 91.2138 8.22617C92.4482 7.6412 94.0283 7.34871 95.954 7.34871ZM116.141 7.34871C116.684 7.34871 117.289 7.37308 117.956 7.42183C118.622 7.47058 119.301 7.55589 119.992 7.67776C120.708 7.79963 121.363 7.97024 121.955 8.18961L121.548 10.2004C120.733 10.1273 119.869 10.0786 118.955 10.0542C118.067 10.0055 117.301 9.98108 116.659 9.98108C115.228 9.98108 114.092 10.1761 113.252 10.5661C112.413 10.956 111.808 11.6385 111.438 12.6135C111.068 13.5884 110.882 14.9412 110.882 16.6717C110.882 18.4022 111.068 19.7672 111.438 20.7665C111.808 21.7415 112.413 22.4239 113.252 22.8139C114.092 23.2039 115.228 23.3989 116.659 23.3989C117.03 23.3989 117.511 23.3867 118.104 23.3623C118.696 23.3379 119.326 23.3014 119.992 23.2526C120.684 23.2039 121.338 23.1308 121.955 23.0333L122.288 25.1172C121.375 25.4341 120.375 25.6656 119.289 25.8119C118.227 25.9581 117.166 26.0312 116.104 26.0312C114.03 26.0312 112.364 25.7266 111.105 25.1172C109.845 24.5079 108.932 23.5207 108.364 22.1558C107.821 20.7909 107.549 18.9628 107.549 16.6717C107.549 14.3806 107.833 12.5525 108.401 11.1876C108.969 9.82265 109.882 8.8477 111.142 8.26273C112.401 7.65338 114.067 7.34871 116.141 7.34871ZM137.518 7.34871C140.777 7.34871 142.406 8.98176 142.406 12.2478V25.5925H139.221V13.1253C139.221 11.931 139.024 11.1145 138.629 10.6757C138.259 10.2126 137.604 9.98108 136.666 9.98108C135.555 9.98108 134.444 10.237 133.333 10.7489C132.222 11.2607 130.901 12.0041 129.371 12.9791L129.223 10.7489C130.63 9.70078 132.025 8.87208 133.407 8.26273C134.79 7.65338 136.16 7.34871 137.518 7.34871ZM129.704 0L129.741 7.05623C129.741 7.86056 129.704 8.61615 129.63 9.32299C129.581 10.0298 129.494 10.6514 129.371 11.1876L129.704 11.736V25.5925H126.556V0H129.704Z" fill="#0077FF"/>
<path d="M144.187 41.1701H131.014C130.918 43.0422 130.231 44.8631 129.018 46.4588C128.504 47.1814 127.79 47.7974 126.932 48.258C126.074 48.7186 125.095 49.0111 124.073 49.1124V49.1345H114.237C114.119 49.6574 113.778 50.1303 113.274 50.4711C112.77 50.8119 112.134 50.999 111.478 51H108.898C108.153 50.999 107.438 50.759 106.911 50.3325C106.384 49.9061 106.087 49.3279 106.086 48.7246V44.8982H102.026C101.901 44.901 101.776 44.8835 101.66 44.8467C101.543 44.8098 101.436 44.7544 101.346 44.6837C101.257 44.6129 101.185 44.5284 101.136 44.4349C101.088 44.3415 101.062 44.2411 101.062 44.1396C101.062 44.0382 101.088 43.9377 101.136 43.8443C101.185 43.7509 101.257 43.6663 101.346 43.5955C101.436 43.5248 101.543 43.4694 101.66 43.4326C101.776 43.3957 101.901 43.3782 102.026 43.3811H106.088V37.0573H102.026C101.778 37.0568 101.54 36.9767 101.364 36.8345C101.188 36.6923 101.089 36.4995 101.089 36.2984C101.089 36.0971 101.188 35.9041 101.364 35.7616C101.539 35.6191 101.778 35.5386 102.026 35.5378H106.088V32.5054C106.09 31.9022 106.386 31.324 106.913 30.8975C107.441 30.471 108.155 30.2309 108.9 30.23H111.48C112.045 30.2313 112.597 30.3705 113.063 30.6296C113.529 30.8886 113.888 31.2555 114.093 31.6821H124.075V31.7054C125.097 31.8067 126.077 32.0996 126.935 32.5607C127.794 33.0218 128.507 33.6386 129.02 34.362C130.234 35.9568 130.921 37.7773 131.016 39.6488H144.189C144.437 39.6462 144.673 39.5654 144.848 39.4236C145.023 39.2818 145.122 39.0903 145.125 38.89V31.1959C145.122 30.9957 145.022 30.8043 144.847 30.6625C144.673 30.5207 144.436 30.4396 144.189 30.4365H141.388C140.643 30.436 140.305 30.018 140.109 29.8594C139.582 29.4329 139.23 28.765 139.229 28.1618V24.5H142.406V26.7392V28.1618C142.41 28.3623 142.406 29.8594 142.406 29.8594C142.406 30.0149 142.053 28.9194 142.097 28.9194H144.189C144.934 28.9212 145.648 29.1616 146.175 29.5882C146.702 30.0148 146.999 30.5928 147 31.1959V38.89C147 39.4941 146.703 40.0736 146.176 40.5011C145.649 40.9285 144.933 41.1691 144.187 41.1701ZM112.414 32.5095C112.411 32.3093 112.311 32.1179 112.136 31.9762C111.962 31.8345 111.725 31.7538 111.478 31.7513H108.898C108.65 31.7541 108.414 31.8348 108.239 31.9764C108.064 32.1179 107.964 32.3092 107.96 32.5095V48.7264C107.964 48.9268 108.064 49.1182 108.239 49.2598C108.414 49.4016 108.65 49.4826 108.898 49.4859H111.478C111.725 49.4828 111.961 49.4017 112.136 49.2599C112.311 49.1181 112.411 48.9267 112.414 48.7264V32.5095ZM114.33 33.2052V47.6197H122.201V33.2057H114.327L114.33 33.2052ZM127.45 35.1924C127.102 34.6835 126.619 34.2434 126.036 33.9036C125.453 33.5637 124.784 33.3325 124.077 33.2266V47.5971C124.784 47.4915 125.453 47.2605 126.036 46.9208C126.619 46.5809 127.102 46.1408 127.45 45.632C128.58 44.0442 129.174 42.2441 129.174 40.4118C129.174 38.5796 128.58 36.7801 127.45 35.1924Z" fill="#0077FF"/>
</svg>
