<svg width="20" height="20" viewBox="0 0 20 20" fill="none" xmlns="http://www.w3.org/2000/svg">
<g id="Frame">
<g id="Group">
<path id="Vector" d="M11.2163 4.19784H2.0757C1.74131 4.19821 1.42073 4.33121 1.18428 4.56766C0.947826 4.80411 0.814825 5.1247 0.814453 5.45909V11.7144C0.814825 12.0488 0.947831 12.3693 1.18429 12.6058C1.42074 12.8422 1.74133 12.9752 2.0757 12.9755H5.09367L4.95305 14.1678H4.66867C4.45937 14.1681 4.25871 14.2514 4.11072 14.3994C3.96273 14.5474 3.8795 14.7481 3.8793 14.9574V15.9242C3.8793 15.9968 3.90811 16.0663 3.95938 16.1176C4.01066 16.1689 4.08021 16.1977 4.15273 16.1977H9.13945C9.21196 16.1976 9.28149 16.1688 9.33276 16.1175C9.38403 16.0663 9.41285 15.9968 9.41289 15.9242V14.9574C9.41268 14.7481 9.32946 14.5474 9.18147 14.3994C9.03348 14.2514 8.83282 14.1681 8.62352 14.1678H8.33914L8.19852 12.9755H11.2163C11.5507 12.9752 11.8713 12.8422 12.1077 12.6058C12.3441 12.3693 12.4771 12.0488 12.4774 11.7144V5.45909C12.4771 5.12471 12.3441 4.80412 12.1077 4.56767C11.8713 4.33122 11.5507 4.19821 11.2163 4.19784ZM2.0757 4.74471H11.2163C11.4057 4.74492 11.5873 4.82025 11.7212 4.95419C11.8551 5.08812 11.9304 5.2697 11.9305 5.45909V10.6236H1.36148V5.45909C1.36169 5.26969 1.43702 5.0881 1.57095 4.95418C1.70487 4.82025 1.8863 4.74492 2.0757 4.74471ZM8.86602 14.9574V15.6508H4.42617V14.9574C4.42621 14.8931 4.45177 14.8314 4.49723 14.7859C4.5427 14.7404 4.60436 14.7148 4.66867 14.7147H8.62352C8.68783 14.7148 8.74949 14.7404 8.79495 14.7859C8.84042 14.8314 8.86597 14.8931 8.86602 14.9574ZM7.78789 14.1678H5.50367L5.6443 12.9755H7.64789L7.78789 14.1678ZM11.2163 12.4286H2.0757C1.88632 12.4285 1.70473 12.3532 1.5708 12.2193C1.43687 12.0854 1.36154 11.9038 1.36133 11.7144V11.1705H11.9305V11.7144C11.9304 11.9038 11.8551 12.0853 11.7212 12.2192C11.5873 12.3532 11.4057 12.4285 11.2163 12.4286ZM18.3355 3.80237H14.362C14.1367 3.80266 13.9207 3.89227 13.7615 4.05156C13.6022 4.21084 13.5126 4.42679 13.5123 4.65206V15.348C13.5126 15.5733 13.6022 15.7892 13.7615 15.9485C13.9207 16.1078 14.1367 16.1974 14.362 16.1977H18.3355C18.5608 16.1974 18.7768 16.1078 18.936 15.9485C19.0953 15.7892 19.1849 15.5733 19.1852 15.348V4.65206C19.1849 4.42679 19.0953 4.21084 18.936 4.05156C18.7768 3.89227 18.5608 3.80266 18.3355 3.80237ZM18.6384 15.348C18.6383 15.4283 18.6063 15.5053 18.5496 15.562C18.4928 15.6188 18.4158 15.6507 18.3355 15.6508H14.362C14.2817 15.6507 14.2047 15.6187 14.148 15.562C14.0912 15.5052 14.0593 15.4283 14.0591 15.348V4.65206C14.0593 4.57178 14.0912 4.49483 14.148 4.43807C14.2047 4.38131 14.2817 4.34937 14.362 4.34924H18.3355C18.4158 4.34933 18.4928 4.38126 18.5496 4.43803C18.6063 4.4948 18.6383 4.57177 18.6384 4.65206V15.348Z" fill="#1F1F1F"/>
<path id="Vector_2" d="M16.3488 11.799C16.1253 11.799 15.9068 11.8653 15.7209 11.9894C15.5351 12.1136 15.3902 12.2901 15.3047 12.4966C15.2191 12.7032 15.1967 12.9304 15.2403 13.1496C15.284 13.3689 15.3916 13.5702 15.5496 13.7283C15.7077 13.8863 15.9091 13.994 16.1283 14.0376C16.3475 14.0812 16.5748 14.0588 16.7813 13.9733C16.9878 13.8877 17.1643 13.7429 17.2885 13.557C17.4127 13.3712 17.4789 13.1527 17.4789 12.9291C17.4786 12.6295 17.3594 12.3423 17.1475 12.1304C16.9357 11.9185 16.6484 11.7994 16.3488 11.799ZM16.3488 13.5124C16.2334 13.5124 16.1207 13.4782 16.0247 13.4141C15.9288 13.35 15.8541 13.2589 15.8099 13.1524C15.7658 13.0458 15.7542 12.9285 15.7767 12.8153C15.7992 12.7022 15.8548 12.5983 15.9363 12.5167C16.0179 12.4351 16.1219 12.3796 16.235 12.3571C16.3481 12.3346 16.4654 12.3461 16.572 12.3903C16.6786 12.4344 16.7697 12.5092 16.8338 12.6051C16.8979 12.701 16.9321 12.8138 16.9321 12.9291C16.9319 13.0838 16.8704 13.232 16.761 13.3414C16.6517 13.4508 16.5034 13.5123 16.3488 13.5124ZM17.2824 5.49414H15.415C15.3425 5.49414 15.273 5.52295 15.2217 5.57423C15.1704 5.62551 15.1416 5.69506 15.1416 5.76758C15.1416 5.8401 15.1704 5.90965 15.2217 5.96093C15.273 6.01221 15.3425 6.04102 15.415 6.04102H17.2824C17.3549 6.04102 17.4245 6.01221 17.4757 5.96093C17.527 5.90965 17.5558 5.8401 17.5558 5.76758C17.5558 5.69506 17.527 5.62551 17.4757 5.57423C17.4245 5.52295 17.3549 5.49414 17.2824 5.49414ZM17.2824 6.7682H15.415C15.3425 6.7682 15.273 6.79701 15.2217 6.84829C15.1704 6.89957 15.1416 6.96912 15.1416 7.04164C15.1416 7.11416 15.1704 7.18371 15.2217 7.23499C15.273 7.28627 15.3425 7.31508 15.415 7.31508H17.2824C17.3549 7.31508 17.4245 7.28627 17.4757 7.23499C17.527 7.18371 17.5558 7.11416 17.5558 7.04164C17.5558 6.96912 17.527 6.89957 17.4757 6.84829C17.4245 6.79701 17.3549 6.7682 17.2824 6.7682ZM17.2824 8.04242H15.415C15.3425 8.04242 15.273 8.07123 15.2217 8.12251C15.1704 8.17379 15.1416 8.24334 15.1416 8.31586C15.1416 8.38838 15.1704 8.45793 15.2217 8.50921C15.273 8.56049 15.3425 8.5893 15.415 8.5893H17.2824C17.3549 8.5893 17.4245 8.56049 17.4757 8.50921C17.527 8.45793 17.5558 8.38838 17.5558 8.31586C17.5558 8.24334 17.527 8.17379 17.4757 8.12251C17.4245 8.07123 17.3549 8.04242 17.2824 8.04242Z" fill="#1F1F1F"/>
</g>
</g>
</svg>
