<svg width="20" height="20" viewBox="0 0 20 20" fill="none" xmlns="http://www.w3.org/2000/svg">
<g id="Frame" clip-path="url(#clip0_66_1005)">
<g id="Group">
<path id="Vector" d="M6.07227 0C5.62694 0.00049628 5.19999 0.177622 4.8851 0.492517C4.5702 0.807412 4.39307 1.23436 4.39258 1.67969V18.3203C4.39307 18.7656 4.5702 19.1926 4.8851 19.5075C5.19999 19.8224 5.62694 19.9995 6.07227 20H13.9277C14.3731 19.9995 14.8 19.8224 15.1149 19.5075C15.4298 19.1926 15.6069 18.7656 15.6074 18.3203V1.67969C15.6069 1.23436 15.4298 0.807412 15.1149 0.492517C14.8 0.177622 14.3731 0.00049628 13.9277 0L6.07227 0ZM14.9824 1.67969V18.3203C14.9821 18.5999 14.8709 18.868 14.6732 19.0657C14.4754 19.2635 14.2074 19.3747 13.9277 19.375H6.07227C5.79264 19.3747 5.52456 19.2635 5.32683 19.0657C5.12911 18.868 5.01789 18.5999 5.01758 18.3203V1.67969C5.01789 1.40006 5.12911 1.13198 5.32683 0.934253C5.52456 0.736528 5.79264 0.62531 6.07227 0.625H13.9277C14.2074 0.6253 14.4755 0.736513 14.6732 0.93424C14.8709 1.13197 14.9821 1.40006 14.9824 1.67969ZM9.68086 1.91699C9.68086 1.83411 9.71378 1.75463 9.77239 1.69602C9.83099 1.63742 9.91048 1.60449 9.99336 1.60449H10.8446C10.9275 1.60449 11.0069 1.63742 11.0655 1.69602C11.1241 1.75463 11.1571 1.83411 11.1571 1.91699C11.1571 1.99987 11.1241 2.07936 11.0655 2.13796C11.0069 2.19657 10.9275 2.22949 10.8446 2.22949H9.99336C9.91048 2.22949 9.83099 2.19657 9.77239 2.13796C9.71378 2.07936 9.68086 1.99987 9.68086 1.91699ZM8.84301 1.91699C8.84301 1.83411 8.87593 1.75463 8.93454 1.69602C8.99314 1.63742 9.07263 1.60449 9.15551 1.60449H9.17613C9.25901 1.60449 9.3385 1.63742 9.3971 1.69602C9.45571 1.75463 9.48863 1.83411 9.48863 1.91699C9.48863 1.99987 9.45571 2.07936 9.3971 2.13796C9.3385 2.19657 9.25901 2.22949 9.17613 2.22949H9.15551C9.07263 2.22949 8.99314 2.19657 8.93454 2.13796C8.87593 2.07936 8.84301 1.99987 8.84301 1.91699ZM12.1677 18.1675C12.1677 18.2504 12.1348 18.3299 12.0762 18.3885C12.0176 18.4471 11.9381 18.48 11.8552 18.48H8.14488C8.062 18.48 7.98252 18.4471 7.92391 18.3885C7.86531 18.3299 7.83238 18.2504 7.83238 18.1675C7.83238 18.0846 7.86531 18.0051 7.92391 17.9465C7.98252 17.8879 8.062 17.855 8.14488 17.855H11.8552C11.9381 17.855 12.0176 17.8879 12.0762 17.9465C12.1348 18.0051 12.1677 18.0846 12.1677 18.1675Z" fill="#0077FF"/>
</g>
</g>
<defs>
<clipPath id="clip0_66_1005">
<rect width="20" height="20" fill="white"/>
</clipPath>
</defs>
</svg>
