<svg width="40" height="40" viewBox="0 0 40 40" fill="none" xmlns="http://www.w3.org/2000/svg">
<rect width="40" height="40" rx="20" fill="#FBFBFB"/>
<g clip-path="url(#clip0_95_1038)">
<path d="M31.7068 30.293L25.7378 24.324C27.3644 22.3346 28.1642 19.7961 27.9716 17.2336C27.7791 14.6711 26.609 12.2806 24.7034 10.5565C22.7977 8.83254 20.3024 7.90692 17.7334 7.97115C15.1645 8.03538 12.7185 9.08455 10.9014 10.9016C9.08431 12.7187 8.03514 15.1647 7.97091 17.7337C7.90667 20.3026 8.83229 22.798 10.5563 24.7036C12.2803 26.6092 14.6708 27.7793 17.2333 27.9719C19.7959 28.1644 22.3344 27.3646 24.3238 25.738L30.2928 31.707C30.4814 31.8892 30.734 31.99 30.9962 31.9877C31.2584 31.9854 31.5092 31.8803 31.6946 31.6948C31.88 31.5094 31.9852 31.2586 31.9875 30.9964C31.9897 30.7342 31.8889 30.4816 31.7068 30.293ZM17.9998 26C16.4175 26 14.8708 25.5308 13.5552 24.6518C12.2396 23.7727 11.2142 22.5233 10.6087 21.0615C10.0032 19.5997 9.84482 17.9912 10.1535 16.4393C10.4622 14.8875 11.2241 13.462 12.3429 12.3432C13.4617 11.2244 14.8872 10.4624 16.4391 10.1537C17.9909 9.84506 19.5994 10.0035 21.0612 10.609C22.5231 11.2145 23.7725 12.2399 24.6515 13.5555C25.5306 14.8711 25.9998 16.4178 25.9998 18C25.9974 20.121 25.1538 22.1545 23.654 23.6542C22.1542 25.154 20.1208 25.9976 17.9998 26Z" fill="#0077FF"/>
</g>
<defs>
<clipPath id="clip0_95_1038">
<rect width="24" height="24" fill="white" transform="translate(8 8)"/>
</clipPath>
</defs>
</svg>
