<svg width="30" height="30" viewBox="0 0 30 30" fill="none" xmlns="http://www.w3.org/2000/svg">
<rect width="30" height="30" rx="15" fill="#FBFBFB"/>
<path d="M5.31161 14.397L9.71336 16.5908C9.79686 16.6322 9.88934 16.6524 9.98253 16.6494C10.0757 16.6464 10.1667 16.6203 10.2474 16.5735L14.1654 14.2958L11.7939 16.3973C11.7342 16.4501 11.6865 16.515 11.6538 16.5876C11.621 16.6603 11.6041 16.7391 11.6041 16.8188V21.9375C11.6041 22.4775 12.2934 22.7048 12.6166 22.2758L14.5194 19.746L19.2249 22.4258C19.3022 22.4697 19.3889 22.4947 19.4778 22.4987C19.5666 22.5027 19.6552 22.4855 19.7362 22.4486C19.8171 22.4117 19.8882 22.3562 19.9435 22.2865C19.9988 22.2168 20.0368 22.135 20.0544 22.0478L22.9891 7.42275C23.0089 7.32378 23.0018 7.2213 22.9683 7.12605C22.9349 7.03081 22.8765 6.94631 22.7992 6.88142C22.7219 6.81653 22.6285 6.77364 22.5289 6.75725C22.4293 6.74085 22.3271 6.75156 22.2331 6.78825L5.35811 13.3695C5.25664 13.4091 5.16884 13.4773 5.10537 13.5658C5.0419 13.6543 5.0055 13.7593 5.00058 13.8681C4.99565 13.9769 5.02242 14.0848 5.07763 14.1787C5.13285 14.2726 5.21413 14.3484 5.31161 14.397ZM21.6841 8.21025L19.1049 21.063L14.6461 18.5235C14.5271 18.456 14.3876 18.4341 14.2536 18.4618C14.1196 18.4896 14.0003 18.5651 13.9179 18.6743L12.7291 20.2545V17.0715L19.1424 11.3895C19.6501 10.9403 19.0666 10.1415 18.4869 10.482L9.94436 15.4485L6.95036 13.9568L21.6841 8.21025Z" fill="#0077FF"/>
</svg>
