<svg width="40" height="40" viewBox="0 0 40 40" fill="none" xmlns="http://www.w3.org/2000/svg">
<rect width="40" height="40" rx="20" fill="#FBFBFB"/>
<g clip-path="url(#clip0_95_1209)">
<path d="M20 19C21.1867 19 22.3467 18.6481 23.3334 17.9888C24.3201 17.3295 25.0892 16.3925 25.5433 15.2961C25.9974 14.1997 26.1162 12.9933 25.8847 11.8295C25.6532 10.6656 25.0818 9.59648 24.2426 8.75736C23.4035 7.91825 22.3344 7.3468 21.1705 7.11529C20.0067 6.88378 18.8003 7.0026 17.7039 7.45673C16.6075 7.91085 15.6705 8.67989 15.0112 9.66658C14.3519 10.6533 14 11.8133 14 13C14.0016 14.5908 14.6342 16.116 15.7591 17.2409C16.884 18.3658 18.4092 18.9984 20 19ZM20 9C20.7911 9 21.5645 9.2346 22.2223 9.67412C22.8801 10.1137 23.3928 10.7384 23.6955 11.4693C23.9983 12.2002 24.0775 13.0044 23.9231 13.7804C23.7688 14.5563 23.3878 15.269 22.8284 15.8284C22.269 16.3878 21.5563 16.7688 20.7804 16.9231C20.0044 17.0775 19.2002 16.9983 18.4693 16.6955C17.7384 16.3928 17.1136 15.8801 16.6741 15.2223C16.2346 14.5645 16 13.7911 16 13C16 11.9391 16.4214 10.9217 17.1716 10.1716C17.9217 9.42143 18.9391 9 20 9ZM20 21C17.6139 21.0027 15.3262 21.9517 13.639 23.639C11.9517 25.3262 11.0026 27.6139 11 30C11 30.2652 11.1054 30.5196 11.2929 30.7071C11.4804 30.8946 11.7348 31 12 31C12.2652 31 12.5196 30.8946 12.7071 30.7071C12.8946 30.5196 13 30.2652 13 30C13 28.1435 13.7375 26.363 15.0503 25.0503C16.363 23.7375 18.1435 23 20 23C21.8565 23 23.637 23.7375 24.9497 25.0503C26.2625 26.363 27 28.1435 27 30C27 30.2652 27.1054 30.5196 27.2929 30.7071C27.4804 30.8946 27.7348 31 28 31C28.2652 31 28.5196 30.8946 28.7071 30.7071C28.8946 30.5196 29 30.2652 29 30C28.9974 27.6139 28.0483 25.3262 26.361 23.639C24.6738 21.9517 22.3861 21.0027 20 21Z" fill="#0077FF"/>
</g>
<defs>
<clipPath id="clip0_95_1209">
<rect width="24" height="24" fill="white" transform="translate(8 7)"/>
</clipPath>
</defs>
</svg>
