<svg width="30" height="30" viewBox="0 0 30 30" fill="none" xmlns="http://www.w3.org/2000/svg">
<rect width="30" height="30" rx="15" fill="#FBFBFB"/>
<path d="M22.7331 15.0652C23.0175 14.6975 23.2433 14.4025 23.41 14.1799C24.6109 12.5833 25.1315 11.5633 24.9719 11.1186L24.9093 11.0145C24.8678 10.9519 24.7599 10.8945 24.5865 10.8425C24.4129 10.7905 24.1908 10.7822 23.9202 10.8165L20.9213 10.8377C20.8519 10.8308 20.7819 10.8324 20.7129 10.8425C20.6435 10.8531 20.5985 10.8637 20.5775 10.8738C20.5566 10.8844 20.5393 10.8928 20.5255 10.8998L20.484 10.931C20.4492 10.9517 20.4111 10.9883 20.3695 11.0405C20.3278 11.0927 20.2929 11.1532 20.2653 11.2228C19.939 12.0627 19.5677 12.8438 19.1511 13.5658C18.8942 13.9963 18.6581 14.3697 18.4431 14.6851C18.2279 15.0013 18.0474 15.2337 17.9016 15.3827C17.7559 15.5319 17.6238 15.6519 17.5059 15.7419C17.3878 15.8325 17.2976 15.8704 17.2353 15.8566C17.1761 15.8437 17.117 15.8297 17.0583 15.8148C16.961 15.7525 16.8828 15.6676 16.824 15.5598C16.7649 15.4524 16.7251 15.317 16.7042 15.1537C16.6835 14.9907 16.6711 14.85 16.6678 14.7318C16.6642 14.6139 16.666 14.4474 16.6731 14.2319C16.68 14.0167 16.6835 13.8712 16.6835 13.7946C16.6835 13.5311 16.6888 13.2446 16.6992 12.9356C16.7095 12.6268 16.7183 12.3819 16.7251 12.2014C16.732 12.0212 16.7355 11.8301 16.7355 11.6287C16.7355 11.4277 16.7233 11.2695 16.6988 11.1548C16.6743 11.0402 16.6377 10.9285 16.5897 10.8216C16.5409 10.7142 16.4698 10.6308 16.376 10.5719C16.2823 10.5128 16.1661 10.4662 16.0273 10.4312C15.6591 10.3477 15.1905 10.3031 14.6215 10.2958C13.3302 10.2824 12.5006 10.3657 12.1327 10.5459C11.9869 10.6225 11.8549 10.7264 11.737 10.8584C11.6119 11.0113 11.5947 11.0947 11.6851 11.1081C12.1017 11.1706 12.3965 11.3201 12.5701 11.556L12.6326 11.6808C12.6811 11.7714 12.7297 11.931 12.7784 12.16C12.8269 12.389 12.8582 12.6424 12.8722 12.9202C12.9069 13.4269 12.9069 13.8606 12.8722 14.2218C12.8375 14.583 12.8046 14.864 12.7733 15.065C12.7421 15.2664 12.6952 15.4294 12.6328 15.5543C12.5703 15.6795 12.5287 15.7559 12.5078 15.7837C12.4868 15.8113 12.4696 15.8287 12.4558 15.8357C12.3661 15.8702 12.2708 15.8878 12.1746 15.8876C12.0774 15.8876 11.9594 15.8389 11.8205 15.7416C11.6816 15.6448 11.5375 15.511 11.3885 15.3409C11.239 15.171 11.0709 14.933 10.8833 14.6274C10.6959 14.3223 10.5014 13.961 10.3002 13.5447L10.1337 13.2425C10.0296 13.0485 9.88721 12.7654 9.70672 12.3941C9.52623 12.0227 9.36641 11.6636 9.22777 11.3162C9.17213 11.1706 9.08888 11.0596 8.97786 10.983L8.9259 10.9518C8.89118 10.9241 8.83554 10.8945 8.7592 10.8634C8.6821 10.832 8.60174 10.8093 8.51961 10.7956L5.66642 10.8163C5.37488 10.8163 5.17714 10.8825 5.073 11.0145L5.03137 11.0768C5.01033 11.1118 5 11.1674 5 11.2435C5 11.3201 5.02093 11.4137 5.06255 11.5245C5.47917 12.5036 5.93215 13.4477 6.42143 14.3568C6.91097 15.2664 7.33611 15.9989 7.69709 16.5542C8.05806 17.11 8.42595 17.6337 8.80098 18.1267C9.176 18.6196 9.42408 18.9353 9.54547 19.074C9.66686 19.2131 9.76228 19.3173 9.83175 19.3864L10.092 19.6366C10.2585 19.8031 10.5034 20.0026 10.8262 20.2353C11.149 20.468 11.5064 20.697 11.8989 20.9224C12.2909 21.1482 12.7475 21.3319 13.2681 21.4744C13.7886 21.617 14.2954 21.6742 14.7883 21.6462H15.9859C16.2289 21.6255 16.4128 21.5494 16.5377 21.4172L16.5793 21.3652C16.6069 21.3238 16.6331 21.2594 16.6574 21.1727C16.6816 21.086 16.6941 20.9904 16.6941 20.8865C16.6869 20.5881 16.7097 20.3186 16.7616 20.0794C16.8136 19.8398 16.8727 19.6596 16.9387 19.5377C17.0047 19.4165 17.0792 19.314 17.1626 19.2305C17.2459 19.147 17.3047 19.0972 17.3397 19.0797C17.3744 19.0627 17.4023 19.0505 17.423 19.0431C17.5894 18.9877 17.7855 19.0415 18.0113 19.2045C18.2369 19.368 18.4487 19.569 18.6466 19.8085C18.8443 20.0481 19.0821 20.3169 19.3599 20.6156C19.6374 20.914 19.8804 21.1361 20.0887 21.2819L20.297 21.4072C20.4359 21.4902 20.6162 21.5666 20.8385 21.6363C21.0606 21.7055 21.2552 21.7229 21.4216 21.6882L24.0874 21.6464C24.3511 21.6464 24.556 21.6032 24.7018 21.5162C24.8475 21.43 24.9343 21.3339 24.9621 21.23C24.9897 21.1258 24.9915 21.0084 24.9674 20.8761C24.943 20.7443 24.9187 20.6524 24.8945 20.6004C24.8702 20.5485 24.8476 20.5048 24.8267 20.4703C24.4795 19.8456 23.8166 19.0783 22.8378 18.1689L22.8168 18.1482L22.8065 18.1377L22.7962 18.1275H22.7857C22.3413 17.704 22.0603 17.4193 21.9423 17.2733C21.7271 16.996 21.6784 16.7148 21.7966 16.4302C21.8793 16.2144 22.1916 15.7596 22.7331 15.0652Z" fill="#0077FF"/>
</svg>
