<svg width="30" height="30" viewBox="0 0 30 30" fill="none" xmlns="http://www.w3.org/2000/svg">
<rect width="30" height="30" rx="15" fill="#FBFBFB"/>
<path d="M24.5879 10.0115C24.3574 9.15469 23.6819 8.47929 22.8252 8.24857C21.2601 7.82035 14.9997 7.82035 14.9997 7.82035C14.9997 7.82035 8.73962 7.82035 7.17456 8.23235C6.33434 8.46282 5.64234 9.15485 5.41187 10.0115C5 11.5764 5 14.822 5 14.822C5 14.822 5 18.0838 5.41187 19.6324C5.64256 20.4891 6.31787 21.1645 7.17469 21.3952C8.75609 21.8235 15 21.8235 15 21.8235C15 21.8235 21.2601 21.8235 22.8252 21.4115C23.682 21.1809 24.3574 20.5055 24.5881 19.6488C24.9999 18.0838 24.9999 14.8384 24.9999 14.8384C24.9999 14.8384 25.0163 11.5764 24.5879 10.0115ZM13.0066 17.8203V11.8236L18.2124 14.8219L13.0066 17.8203Z" fill="#0077FF"/>
</svg>
